<svg xmlns="http://www.w3.org/2000/svg" width="32" height="32" viewBox="0 0 32 32">
    <g transform="translate(-486.806 -920.765)">
        <path fill="#00d1b6" stroke="#373748" stroke-linecap="round" stroke-linejoin="round" d="m 504.29135,930.16202 -0.65633,1.5919 a 5.3240246,5.3240246 0 0 0 -1.68133,0 l -0.65641,-1.5774 -2.2845,0.9507 0.6564,1.5773 a 5.3240246,5.3240246 0 0 0 -1.17806,1.1816 l -1.57906,-0.651 -0.94745,2.298 1.57907,0.651 a 5.3240246,5.3240246 0 0 0 0.003,1.6685 l -1.57739,0.6564 0.95068,2.2845 1.57739,-0.6564 a 5.3240246,5.3240246 0 0 0 1.19437,1.1833 l -0.65103,1.5791 2.28515,0.9422 0.65105,-1.5791 a 5.3240246,5.3240246 0 0 0 1.66849,0 l 0.65641,1.5774 2.28451,-0.9507 -0.65641,-1.5774 a 5.3240246,5.3240246 0 0 0 1.17806,-1.1815 l 1.59191,0.6563 0.94745,-2.298 -1.59191,-0.6563 a 5.3240246,5.3240246 0 0 0 -0.003,-1.6685 l 1.57741,-0.6564 -0.95068,-2.2845 -1.57739,0.6564 a 5.3240246,5.3240246 0 0 0 -1.18154,-1.1781 l 0.65632,-1.5919 -2.28515,-0.9421 z m -0.17537,3.6677 c 1.75323,0.7229 2.58646,2.7251 1.86361,4.4784 -0.72284,1.7532 -2.7304,2.5992 -4.48363,1.8764 -1.75324,-0.7228 -2.594,-2.7432 -1.87116,-4.4965 0.72283,-1.7532 2.73795,-2.5811 4.49118,-1.8583 z" color="#000" overflow="visible"/>
        <path fill="#ff5a67" stroke="#373748" stroke-linecap="round" stroke-linejoin="round" d="m 505.56026,923.26532 -1.26271,3.2073 a 10.657526,10.657526 0 0 0 -3.3653,0.049 l -1.36431,-3.1362 -4.54207,1.9759 1.36431,3.1362 a 10.657526,10.657526 0 0 0 -2.32011,2.4025 l -3.18139,-1.2525 -1.82279,4.6298 3.18139,1.2525 a 10.657526,10.657526 0 0 0 0.0594,3.3395 l -3.13619,1.3643 1.9759,4.542 3.13619,-1.3643 a 10.657526,10.657526 0 0 0 2.42844,2.3303 l -1.25253,3.1814 4.60395,1.8126 1.25254,-3.1814 a 10.657526,10.657526 0 0 0 3.33943,-0.06 l 1.36431,3.1362 4.54207,-1.9759 -1.36431,-3.1362 a 10.657526,10.657526 0 0 0 2.32011,-2.4025 l 3.20726,1.2627 1.82279,-4.6298 -3.20726,-1.2628 a 10.657526,10.657526 0 0 0 -0.0594,-3.3394 l 3.13619,-1.3643 -1.97591,-4.5421 -3.13618,1.3643 a 10.657526,10.657526 0 0 0 -2.40258,-2.3201 l 1.26271,-3.2072 -4.60395,-1.8126 z m -0.23363,7.3467 c 3.53226,1.3907 5.26406,5.3716 3.87338,8.9039 -1.39067,3.5322 -5.38181,5.2899 -8.91407,3.8992 -3.53227,-1.3907 -5.27974,-5.4076 -3.88907,-8.9399 1.39068,-3.5323 5.39749,-5.2539 8.92976,-3.8632 z" color="#000" overflow="visible"/>
    </g>
</svg>